<svg width="67" height="12" viewBox="0 0 67 12" fill="none" xmlns="http://www.w3.org/2000/svg">
<path d="M0.5 6.09091C0.5 3.00314 3.00314 0.5 6.09091 0.5H61C64.0376 0.5 66.5 2.96243 66.5 6C66.5 9.03757 64.0376 11.5 61 11.5H0.5V6.09091Z" fill="#203B60" fill-opacity="0.5" stroke="#203B60"/>
<path d="M5.712 9C5.62667 9 5.584 8.95733 5.584 8.872V3.528C5.584 3.44267 5.62667 3.4 5.712 3.4H7.632C8.01067 3.4 8.344 3.46667 8.632 3.6C8.92 3.73333 9.14133 3.92533 9.296 4.176C9.456 4.42133 9.536 4.70933 9.536 5.04V7.36C9.536 7.69067 9.456 7.98133 9.296 8.232C9.14133 8.47733 8.92 8.66667 8.632 8.8C8.344 8.93333 8.01067 9 7.632 9H5.712ZM6.512 8.152C6.512 8.184 6.528 8.2 6.56 8.2H7.672C7.95467 8.2 8.17867 8.112 8.344 7.936C8.51467 7.75467 8.60267 7.51467 8.608 7.216V5.192C8.608 4.888 8.52267 4.648 8.352 4.472C8.18133 4.29067 7.952 4.2 7.664 4.2H6.56C6.528 4.2 6.512 4.216 6.512 4.248V8.152ZM14.3213 4.072C14.3213 4.15733 14.2786 4.2 14.1933 4.2H11.5053C11.4733 4.2 11.4573 4.216 11.4573 4.248V5.728C11.4573 5.76 11.4733 5.776 11.5053 5.776H13.2973C13.3826 5.776 13.4253 5.81867 13.4253 5.904V6.448C13.4253 6.53333 13.3826 6.576 13.2973 6.576H11.5053C11.4733 6.576 11.4573 6.592 11.4573 6.624V8.152C11.4573 8.184 11.4733 8.2 11.5053 8.2H14.1933C14.2786 8.2 14.3213 8.24267 14.3213 8.328V8.872C14.3213 8.95733 14.2786 9 14.1933 9H10.6573C10.572 9 10.5293 8.95733 10.5293 8.872V3.528C10.5293 3.44267 10.572 3.4 10.6573 3.4H14.1933C14.2786 3.4 14.3213 3.44267 14.3213 3.528V4.072ZM18.4317 9C18.357 9 18.3064 8.968 18.2797 8.904L17.2317 6.616C17.2264 6.59467 17.2077 6.584 17.1757 6.584H16.2397C16.2077 6.584 16.1917 6.6 16.1917 6.632V8.872C16.1917 8.95733 16.149 9 16.0637 9H15.3917C15.3064 9 15.2637 8.95733 15.2637 8.872V3.52C15.2637 3.43467 15.3064 3.392 15.3917 3.392H17.5597C17.885 3.392 18.173 3.46133 18.4237 3.6C18.6744 3.73333 18.869 3.92533 19.0077 4.176C19.1464 4.42133 19.2157 4.704 19.2157 5.024C19.2157 5.392 19.1197 5.70667 18.9277 5.968C18.741 6.224 18.4824 6.4 18.1517 6.496C18.1357 6.50133 18.125 6.512 18.1197 6.528C18.1144 6.53867 18.117 6.54933 18.1277 6.56L19.2317 8.848L19.2477 8.912C19.2477 8.97067 19.2104 9 19.1357 9H18.4317ZM16.2397 4.192C16.2077 4.192 16.1917 4.208 16.1917 4.24V5.816C16.1917 5.848 16.2077 5.864 16.2397 5.864H17.4317C17.6877 5.864 17.893 5.78933 18.0477 5.64C18.2077 5.48533 18.2877 5.28533 18.2877 5.04C18.2877 4.78933 18.2077 4.58667 18.0477 4.432C17.893 4.272 17.6877 4.192 17.4317 4.192H16.2397ZM20.2979 9C20.2126 9 20.1699 8.95733 20.1699 8.872V3.528C20.1699 3.44267 20.2126 3.4 20.2979 3.4H20.9699C21.0553 3.4 21.0979 3.44267 21.0979 3.528V8.872C21.0979 8.95733 21.0553 9 20.9699 9H20.2979ZM22.0637 6.992C21.9784 6.992 21.9357 6.94933 21.9357 6.864V6.32C21.9357 6.23467 21.9784 6.192 22.0637 6.192H24.5197C24.605 6.192 24.6477 6.23467 24.6477 6.32V6.864C24.6477 6.94933 24.605 6.992 24.5197 6.992H22.0637ZM25.6261 9C25.5407 9 25.4981 8.95733 25.4981 8.872V3.528C25.4981 3.44267 25.5407 3.4 25.6261 3.4H26.3061C26.3807 3.4 26.4341 3.42933 26.4661 3.488L27.7141 5.504C27.7247 5.52 27.7354 5.528 27.7461 5.528C27.7621 5.528 27.7727 5.52 27.7781 5.504L29.0421 3.488C29.0741 3.42933 29.1274 3.4 29.2021 3.4H29.8741C29.9594 3.4 30.0021 3.44267 30.0021 3.528V8.872C30.0021 8.95733 29.9594 9 29.8741 9H29.2021C29.1167 9 29.0741 8.95733 29.0741 8.872V5.088C29.0741 5.06667 29.0661 5.05333 29.0501 5.048C29.0394 5.04267 29.0287 5.05067 29.0181 5.072L28.0661 6.632C28.0341 6.69067 27.9807 6.72 27.9061 6.72H27.5941C27.5194 6.72 27.4661 6.69067 27.4341 6.632L26.4821 5.072C26.4714 5.05067 26.4581 5.04267 26.4421 5.048C26.4314 5.05333 26.4261 5.06667 26.4261 5.088V8.872C26.4261 8.95733 26.3834 9 26.2981 9H25.6261ZM34.6739 9C34.5993 9 34.5513 8.96533 34.5299 8.896L34.2819 8.072C34.2766 8.04533 34.2579 8.032 34.2259 8.032H32.1299C32.0979 8.032 32.0793 8.04533 32.0739 8.072L31.8259 8.896C31.8046 8.96533 31.7566 9 31.6819 9H30.9539C30.9113 9 30.8793 8.98667 30.8579 8.96C30.8419 8.93333 30.8393 8.89867 30.8499 8.856L32.5619 3.504C32.5833 3.43467 32.6313 3.4 32.7059 3.4H33.6419C33.7166 3.4 33.7646 3.43467 33.7859 3.504L35.5059 8.856C35.5113 8.86667 35.5139 8.88267 35.5139 8.904C35.5139 8.968 35.4766 9 35.4019 9H34.6739ZM32.3219 7.248C32.3166 7.28533 32.3299 7.304 32.3619 7.304H33.9939C34.0259 7.304 34.0393 7.28533 34.0339 7.248L33.2099 4.528C33.2046 4.50667 33.1939 4.496 33.1779 4.496C33.1673 4.496 33.1566 4.50667 33.1459 4.528L32.3219 7.248ZM39.5254 9C39.4508 9 39.4001 8.968 39.3734 8.904L38.3254 6.616C38.3201 6.59467 38.3014 6.584 38.2694 6.584H37.3334C37.3014 6.584 37.2854 6.6 37.2854 6.632V8.872C37.2854 8.95733 37.2428 9 37.1574 9H36.4854C36.4001 9 36.3574 8.95733 36.3574 8.872V3.52C36.3574 3.43467 36.4001 3.392 36.4854 3.392H38.6534C38.9788 3.392 39.2668 3.46133 39.5174 3.6C39.7681 3.73333 39.9628 3.92533 40.1014 4.176C40.2401 4.42133 40.3094 4.704 40.3094 5.024C40.3094 5.392 40.2134 5.70667 40.0214 5.968C39.8348 6.224 39.5761 6.4 39.2454 6.496C39.2294 6.50133 39.2188 6.512 39.2134 6.528C39.2081 6.53867 39.2108 6.54933 39.2214 6.56L40.3254 8.848L40.3414 8.912C40.3414 8.97067 40.3041 9 40.2294 9H39.5254ZM37.3334 4.192C37.3014 4.192 37.2854 4.208 37.2854 4.24V5.816C37.2854 5.848 37.3014 5.864 37.3334 5.864H38.5254C38.7814 5.864 38.9868 5.78933 39.1414 5.64C39.3014 5.48533 39.3814 5.28533 39.3814 5.04C39.3814 4.78933 39.3014 4.58667 39.1414 4.432C38.9868 4.272 38.7814 4.192 38.5254 4.192H37.3334ZM43.1357 9.064C42.7357 9.064 42.3837 8.98667 42.0797 8.832C41.7757 8.672 41.541 8.448 41.3757 8.16C41.2104 7.872 41.1277 7.54133 41.1277 7.168V5.232C41.1277 4.85333 41.2104 4.52267 41.3757 4.24C41.541 3.952 41.7757 3.73067 42.0797 3.576C42.3837 3.416 42.7357 3.336 43.1357 3.336C43.5304 3.336 43.877 3.41333 44.1757 3.568C44.4797 3.72267 44.7144 3.93333 44.8797 4.2C45.045 4.46667 45.1277 4.768 45.1277 5.104V5.136C45.1277 5.22133 45.085 5.264 44.9997 5.264H44.3357C44.2984 5.264 44.2664 5.25867 44.2397 5.248C44.2184 5.232 44.2077 5.21333 44.2077 5.192V5.128C44.2077 4.84 44.109 4.60267 43.9117 4.416C43.7197 4.22933 43.461 4.136 43.1357 4.136C42.8104 4.136 42.549 4.23467 42.3517 4.432C42.1544 4.624 42.0557 4.88 42.0557 5.2V7.2C42.0557 7.52 42.1597 7.77867 42.3677 7.976C42.5757 8.168 42.845 8.264 43.1757 8.264C43.4957 8.264 43.7464 8.18133 43.9277 8.016C44.1144 7.84533 44.2077 7.61333 44.2077 7.32V6.832C44.2077 6.8 44.1917 6.784 44.1597 6.784H43.2157C43.1304 6.784 43.0877 6.74133 43.0877 6.656V6.128C43.0877 6.04267 43.1304 6 43.2157 6H44.9997C45.085 6 45.1277 6.04267 45.1277 6.128V7.12C45.1277 7.73333 44.9464 8.21067 44.5837 8.552C44.2264 8.89333 43.7437 9.064 43.1357 9.064ZM46.2433 9C46.1579 9 46.1153 8.95733 46.1153 8.872V3.528C46.1153 3.44267 46.1579 3.4 46.2433 3.4H46.9153C47.0006 3.4 47.0433 3.44267 47.0433 3.528V8.872C47.0433 8.95733 47.0006 9 46.9153 9H46.2433ZM48.337 9C48.2517 9 48.209 8.95733 48.209 8.872V3.528C48.209 3.44267 48.2517 3.4 48.337 3.4H48.977C49.0517 3.4 49.105 3.42933 49.137 3.488L51.377 7.152C51.3877 7.17333 51.3983 7.18133 51.409 7.176C51.425 7.17067 51.433 7.15733 51.433 7.136V3.528C51.433 3.44267 51.4757 3.4 51.561 3.4H52.233C52.3183 3.4 52.361 3.44267 52.361 3.528V8.872C52.361 8.95733 52.3183 9 52.233 9H51.577C51.5023 9 51.449 8.97067 51.417 8.912L49.177 5.224C49.1663 5.20267 49.153 5.19467 49.137 5.2C49.1263 5.20533 49.121 5.21867 49.121 5.24L49.129 8.872C49.129 8.95733 49.0863 9 49.001 9H48.337ZM57.2432 4.072C57.2432 4.15733 57.2005 4.2 57.1152 4.2H54.4272C54.3952 4.2 54.3792 4.216 54.3792 4.248V5.728C54.3792 5.76 54.3952 5.776 54.4272 5.776H56.2192C56.3045 5.776 56.3472 5.81867 56.3472 5.904V6.448C56.3472 6.53333 56.3045 6.576 56.2192 6.576H54.4272C54.3952 6.576 54.3792 6.592 54.3792 6.624V8.152C54.3792 8.184 54.3952 8.2 54.4272 8.2H57.1152C57.2005 8.2 57.2432 8.24267 57.2432 8.328V8.872C57.2432 8.95733 57.2005 9 57.1152 9H53.5792C53.4939 9 53.4512 8.95733 53.4512 8.872V3.528C53.4512 3.44267 53.4939 3.4 53.5792 3.4H57.1152C57.2005 3.4 57.2432 3.44267 57.2432 3.528V4.072ZM58.3136 9C58.2282 9 58.1856 8.95733 58.1856 8.872V3.528C58.1856 3.44267 58.2282 3.4 58.3136 3.4H60.2336C60.6122 3.4 60.9456 3.46667 61.2336 3.6C61.5216 3.73333 61.7429 3.92533 61.8976 4.176C62.0576 4.42133 62.1376 4.70933 62.1376 5.04V7.36C62.1376 7.69067 62.0576 7.98133 61.8976 8.232C61.7429 8.47733 61.5216 8.66667 61.2336 8.8C60.9456 8.93333 60.6122 9 60.2336 9H58.3136ZM59.1136 8.152C59.1136 8.184 59.1296 8.2 59.1616 8.2H60.2736C60.5562 8.2 60.7802 8.112 60.9456 7.936C61.1162 7.75467 61.2042 7.51467 61.2096 7.216V5.192C61.2096 4.888 61.1242 4.648 60.9536 4.472C60.7829 4.29067 60.5536 4.2 60.2656 4.2H59.1616C59.1296 4.2 59.1136 4.216 59.1136 4.248V8.152Z" fill="#E0ECFF"/>
</svg>
